<?xml version="1.0" encoding="UTF-8"?>
<svg id="katman_2" data-name="katman 2" xmlns="http://www.w3.org/2000/svg" viewBox="0 0 55 44.82">
  <defs>
    <style>
      .cls-1 {
        stroke-width: 0px;
      }
    </style>
  </defs>
  <g id="katman_1" data-name="katman 1">
    <g>
      <path class="cls-1" d="M55,38.15c-.09.34-.17.69-.26,1.03-.91,3.23-3.98,5.56-7.44,5.63-1.49.03-2.97,0-4.46,0-11.56,0-23.13,0-34.69,0-2.9,0-5.24-1.14-6.92-3.54-.77-1.09-1.16-2.33-1.22-3.67-.05-1.02.34-1.42,1.35-1.42,1.63,0,3.26-.02,4.89,0,.5,0,.51-.12.32-.53-3.2-7.24.9-15.57,8.6-17.47.43-.11.44-.24.29-.6C12.32,9.88,17.15,1.37,25.36.14c7.1-1.07,13.7,4.02,14.51,11.17.23,2.05-.02,4.04-.77,5.95-.16.4-.06.5.33.57,8.16,1.57,12.62,10.28,9.15,17.84-.18.39-.17.52.31.51,1.56-.02,3.11.01,4.67-.02.66-.01,1.15.18,1.43.8v1.18ZM27.46,42.64c1.79,0,3.58,0,5.37,0,4.65,0,9.31,0,13.96,0,2.67,0,4.86-1.4,5.7-3.61.25-.66.24-.67-.45-.67-9.61,0-19.23,0-28.84,0-.21,0-.43.01-.64-.02-.57-.07-.96-.5-.98-1.04-.02-.66.43-1.11,1.16-1.12,1.32-.01,2.65,0,3.97,0,.22,0,.42.02.56-.22,1.41-2.41,1.84-4.97,1.27-7.7-.06-.27-.18-.3-.41-.19-.6.27-.81.77-.84,1.38-.02.5.05,1-.07,1.5-.35,1.46-1.76,2.45-3.54,2.51-1.83.06-3.98-1.14-3.81-3.67.04-.66,0-1.32,0-1.99,0-.82-.28-1.17-1.09-1.33-.46-.09-.93-.07-1.38.09-.63.22-.85.52-.86,1.19,0,1.09,0,2.18,0,3.28,0,1.21-.56,2.08-1.56,2.7-.84.52-1.77.66-2.74.53-1.53-.2-3.2-1.33-3.05-3.44.04-.52.02-1.04,0-1.56-.03-.59-.17-1.14-.67-1.52-.29-.22-.49-.29-.6.19-.64,2.74-.29,5.32,1.06,7.79.19.34.41.47.8.46,1.27-.02,2.54-.02,3.81,0,.84.01,1.35.75,1.05,1.47-.23.56-.7.7-1.27.7-3.51,0-7.02,0-10.53,0-.6,0-.61,0-.4.59.21.6.53,1.13.94,1.61,1.27,1.46,2.91,2.08,4.81,2.08,6.41,0,12.82,0,19.23,0ZM14.39,29.21c0-.55,0-1.11,0-1.66,0-1.24.58-2.15,1.66-2.75,1-.55,2.08-.67,3.17-.45,1.88.37,2.83,1.56,2.84,3.46,0,.7,0,1.4,0,2.09,0,.92.51,1.38,1.51,1.38,1.05,0,1.55-.45,1.55-1.38,0-.21,0-.43,0-.64.08-1.47.75-2.56,2.12-3.15.43-.18.42-.34.22-.68-1.83-3.12-4.54-4.91-8.13-5.39-3.89-.52-8.32,1.68-10.22,5.11-.14.26-.16.37.14.51,1.17.56,1.79,1.54,2.03,2.79.16.84.08,1.68.08,2.52,0,.51.23.81.66.99.53.23,1.08.25,1.62.02.49-.2.78-.54.75-1.11-.03-.55,0-1.11,0-1.66ZM17.94,7.69c1.51.64,2.27,1.81,2.43,3.36.07.69.05,1.4.03,2.09-.02.56.26.87.73,1.05.49.18.98.19,1.47,0,.6-.22.81-.53.81-1.17,0-1.07,0-2.15,0-3.22,0-1.39.66-2.34,1.89-2.93.8-.38,1.64-.5,2.51-.4,1.71.19,3.39,1.28,3.27,3.59-.04.7,0,1.4,0,2.09,0,.86.58,1.34,1.57,1.33.98-.01,1.49-.47,1.49-1.34,0-.25,0-.5.01-.75.08-1.43.75-2.5,2.07-3.07.52-.22.42-.41.21-.77-2.51-4.44-7.84-6.47-12.67-4.79-2.56.89-4.47,2.55-5.83,4.92ZM25.57,11.67c0,.54,0,1.07,0,1.61,0,1.03-.43,1.83-1.24,2.44-1.04.78-2.22.96-3.46.67-1.74-.42-2.63-1.57-2.64-3.35,0-.5.01-1,0-1.5-.02-.6-.15-1.18-.66-1.58-.3-.23-.49-.29-.61.2-.61,2.52-.34,4.93.78,7.26.14.29.3.43.65.42.44-.02.9.02,1.34.07,2.93.36,5.44,1.59,7.52,3.67.2.19.3.27.54.03,2.31-2.43,5.15-3.74,8.49-3.96.2-.01.33-.05.42-.25,1.06-2.21,1.35-4.5.84-6.9-.07-.31-.21-.31-.45-.19-.55.27-.77.72-.79,1.3-.02.48.02.97-.06,1.44-.26,1.41-1.49,2.41-3.22,2.61-1.95.22-4.29-1.02-4.13-3.6.05-.75.02-1.5,0-2.26-.01-.71-.51-1.1-1.45-1.17-.96-.07-1.76.37-1.86,1-.02.12-.01.25-.01.38,0,.56,0,1.11,0,1.67ZM33.22,29.05h0c0-.57,0-1.15,0-1.72.02-1.16.52-2.06,1.52-2.67,1.01-.61,2.12-.75,3.26-.54,1.91.35,2.9,1.59,2.9,3.53,0,.7,0,1.4,0,2.09,0,.87.51,1.32,1.51,1.32,1.03,0,1.53-.43,1.53-1.34,0-.21,0-.43,0-.64.09-1.46.72-2.58,2.09-3.18.43-.19.46-.32.24-.71-3.44-6.23-12.07-7.31-16.94-2.12-.34.37-.47.64-.13,1.07.23.29.37.65.53.99.91,1.95,1.29,4,1.19,6.15,0,.17-.11.4.09.49.5.22,1.02.18,1.51-.04.4-.18.7-.44.69-.93,0-.59,0-1.18,0-1.77ZM37.73,36.18c2.54,0,5.08,0,7.63,0,.35,0,.55-.09.73-.4,1.34-2.3,1.8-4.76,1.32-7.39-.04-.2.02-.51-.2-.57-.24-.07-.47.14-.65.31-.23.22-.37.49-.39.8-.02.39-.04.79-.04,1.18-.01.86-.35,1.56-.98,2.13-.85.76-1.85,1.05-2.97.99-2.17-.13-3.44-1.47-3.44-3.63,0-.66,0-1.32,0-1.99,0-.86-.29-1.21-1.12-1.36-.5-.09-1-.06-1.48.14-.48.2-.74.52-.73,1.06.02,1.09,0,2.18,0,3.28,0,1.43-.71,2.4-1.97,2.99-.79.37-1.63.46-2.46.29-.44-.09-.56.04-.66.42-.12.43-.28.85-.47,1.25-.2.4-.15.5.31.5,2.52-.02,5.05,0,7.57,0Z"/>
      <path class="cls-1" d="M18.3,36.19c.61,0,1.11.46,1.12,1.06.01.58-.49,1.1-1.08,1.11-.59.01-1.1-.48-1.11-1.07-.01-.6.47-1.09,1.08-1.09Z"/>
    </g>
  </g>
</svg>