<?xml version="1.0" encoding="UTF-8"?>
<svg id="five-stars" data-name="five stars" xmlns="http://www.w3.org/2000/svg" viewBox="0 0 351.29 52.68">
  <g id="five-stars-2" data-name="five stars 2">
    <g>
      <path class="cls-1" d="M0,20.18c.15-.3.27-.61.44-.9.61-1.03,1.59-1.35,2.72-1.45,4.93-.43,9.87-.88,14.8-1.31.43-.04.65-.21.81-.6,1.97-4.64,3.96-9.27,5.92-13.91C25.23.75,26.13,0,27.52,0c1.36,0,2.25.76,2.77,2,1.96,4.6,3.94,9.2,5.88,13.81.21.51.48.68,1.01.72,5.06.44,10.12.9,15.17,1.38,1.27.12,2.12.85,2.5,2.04.37,1.19.04,2.24-.89,3.06-3.21,2.83-6.43,5.64-9.64,8.46-.67.59-1.34,1.19-2.02,1.77-.23.19-.3.36-.22.68,1.14,4.98,2.27,9.96,3.39,14.95.31,1.36-.07,2.54-1.08,3.24-1.12.77-2.27.72-3.42.03-4.34-2.6-8.69-5.19-13.02-7.8-.34-.21-.58-.19-.91,0-4.34,2.61-8.69,5.18-13.02,7.81-1.96,1.19-4.02.14-4.51-1.59-.16-.55-.14-1.09-.01-1.64,1.12-4.93,2.24-9.86,3.38-14.79.11-.46.01-.73-.34-1.04-3.78-3.29-7.54-6.61-11.32-9.89-.59-.51-.96-1.13-1.22-1.84v-1.18Z"/>
      <path class="cls-1" d="M74.07,20.18c.15-.3.27-.61.44-.9.61-1.03,1.59-1.35,2.72-1.45,4.93-.43,9.87-.88,14.8-1.31.43-.04.65-.21.81-.6,1.97-4.64,3.96-9.27,5.92-13.91C99.3.75,100.2,0,101.59,0c1.36,0,2.25.76,2.77,2,1.96,4.6,3.94,9.2,5.88,13.81.21.51.48.68,1.01.72,5.06.44,10.12.9,15.17,1.38,1.27.12,2.12.85,2.5,2.04.37,1.19.04,2.24-.89,3.06-3.21,2.83-6.43,5.64-9.64,8.46-.67.59-1.34,1.19-2.02,1.77-.23.19-.3.36-.22.68,1.14,4.98,2.27,9.96,3.39,14.95.31,1.36-.07,2.54-1.08,3.24-1.12.77-2.27.72-3.42.03-4.34-2.6-8.69-5.19-13.02-7.8-.34-.21-.58-.19-.91,0-4.34,2.61-8.69,5.18-13.02,7.81-1.96,1.19-4.02.14-4.51-1.59-.16-.55-.14-1.09-.01-1.64,1.12-4.93,2.24-9.86,3.38-14.79.11-.46.01-.73-.34-1.04-3.78-3.29-7.54-6.61-11.32-9.89-.59-.51-.96-1.13-1.22-1.84v-1.18Z"/>
      <path class="cls-1" d="M148.14,20.18c.15-.3.27-.61.44-.9.61-1.03,1.59-1.35,2.72-1.45,4.93-.43,9.87-.88,14.8-1.31.43-.04.65-.21.81-.6,1.97-4.64,3.96-9.27,5.92-13.91C173.38.75,174.27,0,175.66,0c1.36,0,2.25.76,2.77,2,1.96,4.6,3.94,9.2,5.88,13.81.21.51.48.68,1.01.72,5.06.44,10.12.9,15.17,1.38,1.27.12,2.12.85,2.5,2.04.37,1.19.04,2.24-.89,3.06-3.21,2.83-6.43,5.64-9.64,8.46-.67.59-1.34,1.19-2.02,1.77-.23.19-.3.36-.22.68,1.14,4.98,2.27,9.96,3.39,14.95.31,1.36-.07,2.54-1.08,3.24-1.12.77-2.27.72-3.42.03-4.34-2.6-8.69-5.19-13.02-7.8-.34-.21-.58-.19-.91,0-4.34,2.61-8.69,5.18-13.02,7.81-1.96,1.19-4.02.14-4.51-1.59-.16-.55-.14-1.09-.01-1.64,1.12-4.93,2.24-9.86,3.38-14.79.11-.46.01-.73-.34-1.04-3.78-3.29-7.54-6.61-11.32-9.89-.59-.51-.96-1.13-1.22-1.84v-1.18Z"/>
      <path class="cls-1" d="M222.21,20.18c.15-.3.27-.61.44-.9.61-1.03,1.59-1.35,2.72-1.45,4.93-.43,9.87-.88,14.8-1.31.43-.04.65-.21.81-.6,1.97-4.64,3.96-9.27,5.92-13.91C247.45.75,248.34,0,249.73,0c1.36,0,2.25.76,2.77,2,1.96,4.6,3.94,9.2,5.88,13.81.21.51.48.68,1.01.72,5.06.44,10.12.9,15.17,1.38,1.27.12,2.12.85,2.5,2.04.37,1.19.04,2.24-.89,3.06-3.21,2.83-6.43,5.64-9.64,8.46-.67.59-1.34,1.19-2.02,1.77-.23.19-.3.36-.22.68,1.14,4.98,2.27,9.96,3.39,14.95.31,1.36-.07,2.54-1.08,3.24-1.12.77-2.27.72-3.42.03-4.34-2.6-8.69-5.19-13.02-7.8-.34-.21-.58-.19-.91,0-4.34,2.61-8.69,5.18-13.02,7.81-1.96,1.19-4.02.14-4.51-1.59-.16-.55-.14-1.09-.01-1.64,1.12-4.93,2.24-9.86,3.38-14.79.11-.46.01-.73-.34-1.04-3.78-3.29-7.54-6.61-11.32-9.89-.59-.51-.96-1.13-1.22-1.84v-1.18Z"/>
      <path class="cls-1" d="M296.29,20.18c.15-.3.27-.61.44-.9.61-1.03,1.59-1.35,2.72-1.45,4.93-.43,9.87-.88,14.8-1.31.43-.04.65-.21.81-.6,1.97-4.64,3.96-9.27,5.92-13.91C321.52.75,322.42,0,323.8,0c1.36,0,2.25.76,2.77,2,1.96,4.6,3.94,9.2,5.88,13.81.21.51.48.68,1.01.72,5.06.44,10.12.9,15.17,1.38,1.27.12,2.12.85,2.5,2.04.37,1.19.04,2.24-.89,3.06-3.21,2.83-6.43,5.64-9.64,8.46-.67.59-1.34,1.19-2.02,1.77-.23.19-.3.36-.22.68,1.14,4.98,2.27,9.96,3.39,14.95.31,1.36-.07,2.54-1.08,3.24-1.12.77-2.27.72-3.42.03-4.34-2.6-8.69-5.19-13.02-7.8-.34-.21-.58-.19-.91,0-4.34,2.61-8.69,5.18-13.02,7.81-1.96,1.19-4.02.14-4.51-1.59-.16-.55-.14-1.09-.01-1.64,1.12-4.93,2.24-9.86,3.38-14.79.11-.46.01-.73-.34-1.04-3.78-3.29-7.54-6.61-11.32-9.89-.59-.51-.96-1.13-1.22-1.84v-1.18Z"/>
    </g>
  </g>
</svg>