<?xml version="1.0" encoding="UTF-8"?>
<svg id="four-stars" data-name="four stars" xmlns="http://www.w3.org/2000/svg" viewBox="0 0 351.29 52.68">
  <g id="four-stars-2" data-name="four stars 2">
    <g>
      <path class="cls-1" d="M0,20.18c.15-.3.27-.61.44-.9.61-1.03,1.59-1.35,2.72-1.45,4.93-.43,9.87-.88,14.8-1.31.43-.04.65-.21.81-.6,1.97-4.64,3.96-9.27,5.92-13.91C25.23.75,26.13,0,27.52,0c1.36,0,2.25.76,2.77,2,1.96,4.6,3.94,9.2,5.88,13.81.21.51.48.68,1.01.72,5.06.44,10.12.9,15.17,1.38,1.27.12,2.12.85,2.5,2.04.37,1.19.04,2.24-.89,3.06-3.21,2.83-6.43,5.64-9.64,8.46-.67.59-1.34,1.19-2.02,1.77-.23.19-.3.36-.22.68,1.14,4.98,2.27,9.96,3.39,14.95.31,1.36-.07,2.54-1.08,3.24-1.12.77-2.27.72-3.42.03-4.34-2.6-8.69-5.19-13.02-7.8-.34-.21-.58-.19-.91,0-4.34,2.61-8.69,5.18-13.02,7.81-1.96,1.19-4.02.14-4.51-1.59-.16-.55-.14-1.09-.01-1.64,1.12-4.93,2.24-9.86,3.38-14.79.11-.46.01-.73-.34-1.04-3.78-3.29-7.54-6.61-11.32-9.89-.59-.51-.96-1.13-1.22-1.84v-1.18Z"/>
      <path class="cls-1" d="M74.07,20.18c.15-.3.27-.61.44-.9.61-1.03,1.59-1.35,2.72-1.45,4.93-.43,9.87-.88,14.8-1.31.43-.04.65-.21.81-.6,1.97-4.64,3.96-9.27,5.92-13.91C99.3.75,100.2,0,101.59,0c1.36,0,2.25.76,2.77,2,1.96,4.6,3.94,9.2,5.88,13.81.21.51.48.68,1.01.72,5.06.44,10.12.9,15.17,1.38,1.27.12,2.12.85,2.5,2.04.37,1.19.04,2.24-.89,3.06-3.21,2.83-6.43,5.64-9.64,8.46-.67.59-1.34,1.19-2.02,1.77-.23.19-.3.36-.22.68,1.14,4.98,2.27,9.96,3.39,14.95.31,1.36-.07,2.54-1.08,3.24-1.12.77-2.27.72-3.42.03-4.34-2.6-8.69-5.19-13.02-7.8-.34-.21-.58-.19-.91,0-4.34,2.61-8.69,5.18-13.02,7.81-1.96,1.19-4.02.14-4.51-1.59-.16-.55-.14-1.09-.01-1.64,1.12-4.93,2.24-9.86,3.38-14.79.11-.46.01-.73-.34-1.04-3.78-3.29-7.54-6.61-11.32-9.89-.59-.51-.96-1.13-1.22-1.84v-1.18Z"/>
      <path class="cls-1" d="M148.14,20.18c.15-.3.27-.61.44-.9.61-1.03,1.59-1.35,2.72-1.45,4.93-.43,9.87-.88,14.8-1.31.43-.04.65-.21.81-.6,1.97-4.64,3.96-9.27,5.92-13.91C173.38.75,174.27,0,175.66,0c1.36,0,2.25.76,2.77,2,1.96,4.6,3.94,9.2,5.88,13.81.21.51.48.68,1.01.72,5.06.44,10.12.9,15.17,1.38,1.27.12,2.12.85,2.5,2.04.37,1.19.04,2.24-.89,3.06-3.21,2.83-6.43,5.64-9.64,8.46-.67.59-1.34,1.19-2.02,1.77-.23.19-.3.36-.22.68,1.14,4.98,2.27,9.96,3.39,14.95.31,1.36-.07,2.54-1.08,3.24-1.12.77-2.27.72-3.42.03-4.34-2.6-8.69-5.19-13.02-7.8-.34-.21-.58-.19-.91,0-4.34,2.61-8.69,5.18-13.02,7.81-1.96,1.19-4.02.14-4.51-1.59-.16-.55-.14-1.09-.01-1.64,1.12-4.93,2.24-9.86,3.38-14.79.11-.46.01-.73-.34-1.04-3.78-3.29-7.54-6.61-11.32-9.89-.59-.51-.96-1.13-1.22-1.84v-1.18Z"/>
      <path class="cls-1" d="M222.21,20.18c.15-.3.27-.61.44-.9.61-1.03,1.59-1.35,2.72-1.45,4.93-.43,9.87-.88,14.8-1.31.43-.04.65-.21.81-.6,1.97-4.64,3.96-9.27,5.92-13.91C247.45.75,248.34,0,249.73,0c1.36,0,2.25.76,2.77,2,1.96,4.6,3.94,9.2,5.88,13.81.21.51.48.68,1.01.72,5.06.44,10.12.9,15.17,1.38,1.27.12,2.12.85,2.5,2.04.37,1.19.04,2.24-.89,3.06-3.21,2.83-6.43,5.64-9.64,8.46-.67.59-1.34,1.19-2.02,1.77-.23.19-.3.36-.22.68,1.14,4.98,2.27,9.96,3.39,14.95.31,1.36-.07,2.54-1.08,3.24-1.12.77-2.27.72-3.42.03-4.34-2.6-8.69-5.19-13.02-7.8-.34-.21-.58-.19-.91,0-4.34,2.61-8.69,5.18-13.02,7.81-1.96,1.19-4.02.14-4.51-1.59-.16-.55-.14-1.09-.01-1.64,1.12-4.93,2.24-9.86,3.38-14.79.11-.46.01-.73-.34-1.04-3.78-3.29-7.54-6.61-11.32-9.89-.59-.51-.96-1.13-1.22-1.84v-1.18Z"/>
      <path class="cls-1" d="M323.78,0v2c.3,0,.62,0,.95.78.73,1.72,1.47,3.44,2.2,5.16,1.23,2.88,2.46,5.76,3.68,8.64.5,1.18,1.4,1.83,2.68,1.94,4.48.39,9.3.83,15.16,1.38.39.04.62.15.77.65.11.36.1.62-.3.97-2.31,2.04-4.62,4.06-6.94,6.09l-2.7,2.37-.57.5c-.47.42-.95.83-1.43,1.24-.8.68-1.12,1.62-.88,2.66.88,3.82,1.74,7.65,2.61,11.48l.78,3.46c.19.84-.15,1.07-.27,1.15-.31.21-.49.21-.55.21-.24,0-.52-.14-.71-.25-1.75-1.05-3.5-2.1-5.25-3.15-2.59-1.55-5.18-3.1-7.77-4.66-.48-.29-.98-.43-1.48-.43s-1,.14-1.49.44c-1.71,1.03-3.43,2.06-5.15,3.08-2.58,1.54-5.26,3.14-7.88,4.73-.24.15-.47.22-.69.22-.4,0-.76-.26-.86-.64-.03-.11-.06-.3.02-.65l.86-3.77c.84-3.67,1.67-7.34,2.52-11.01.28-1.19-.05-2.2-.98-3-1.88-1.64-3.75-3.28-5.62-4.92-1.9-1.66-3.79-3.32-5.69-4.98-.22-.19-.39-.42-.53-.72v-.35c.06-.12.11-.24.16-.32.1-.17.24-.4,1.17-.48,2.23-.2,4.46-.39,6.69-.59,2.7-.24,5.4-.48,8.11-.72.81-.07,1.9-.44,2.48-1.82,1.03-2.44,2.08-4.88,3.12-7.32.94-2.2,1.87-4.39,2.81-6.59.34-.79.67-.79.96-.79V0M323.78,0c-1.38,0-2.27.75-2.8,2.01-1.97,4.64-3.96,9.27-5.92,13.91-.17.39-.38.57-.81.6-4.94.43-9.87.88-14.8,1.31-1.12.1-2.11.42-2.72,1.45-.17.29-.3.6-.44.9v1.18c.26.71.63,1.33,1.22,1.84,3.78,3.29,7.54,6.61,11.32,9.89.36.31.45.58.34,1.04-1.14,4.93-2.26,9.86-3.38,14.79-.13.55-.14,1.09.01,1.64.34,1.21,1.47,2.09,2.79,2.09.56,0,1.15-.16,1.73-.51,4.32-2.63,8.68-5.2,13.02-7.81.17-.1.32-.16.46-.16s.28.05.45.15c4.33,2.61,8.68,5.2,13.02,7.8.58.35,1.16.54,1.74.54s1.13-.18,1.68-.56c1.02-.7,1.39-1.88,1.08-3.24-1.13-4.98-2.25-9.97-3.39-14.95-.07-.32,0-.49.22-.68.68-.58,1.35-1.18,2.02-1.77,3.22-2.82,6.44-5.63,9.64-8.46.93-.82,1.26-1.88.89-3.06-.37-1.2-1.22-1.93-2.5-2.04-5.06-.47-10.11-.94-15.17-1.38-.53-.05-.8-.22-1.01-.72-1.94-4.61-3.92-9.2-5.88-13.81-.53-1.24-1.41-1.99-2.77-2h-.02Z"/>
    </g>
  </g>
</svg>