<?xml version="1.0" encoding="UTF-8"?>
<svg id="half-stars" data-name="half stars" xmlns="http://www.w3.org/2000/svg" viewBox="0 0 351.29 52.68">
   <g id="half-stars-2" data-name="half stars 2">
    <g>
      <path class="cls-1" d="M52.35,17.91c-5.06-.47-10.11-.94-15.17-1.38-.53-.05-.8-.22-1.01-.72-1.94-4.61-3.92-9.2-5.88-13.81C29.76.76,28.88,0,27.52,0c-1.39,0-2.28.75-2.82,2.01-1.97,4.64-3.96,9.27-5.92,13.91-.17.39-.38.57-.81.6-4.94.43-9.87.88-14.8,1.31-1.12.1-2.11.42-2.72,1.45-.17.29-.3.6-.44.9v1.18c.26.71.63,1.33,1.22,1.84,3.78,3.29,7.54,6.61,11.32,9.89.36.31.45.58.34,1.04-1.14,4.93-2.26,9.86-3.38,14.79-.13.55-.14,1.09.01,1.64.49,1.73,2.55,2.78,4.51,1.59,4.32-2.63,8.68-5.2,13.02-7.81.33-.2.57-.21.91,0,4.33,2.61,8.68,5.2,13.02,7.8,1.15.69,2.3.75,3.42-.03,1.02-.7,1.39-1.88,1.08-3.24-1.13-4.98-2.25-9.97-3.39-14.95-.07-.32,0-.49.22-.68.68-.58,1.35-1.18,2.02-1.77,3.22-2.82,6.44-5.63,9.64-8.46.93-.82,1.26-1.88.89-3.06-.37-1.2-1.22-1.93-2.5-2.04Z"/>
      <path class="cls-1" d="M126.43,17.91c-5.06-.47-10.11-.94-15.17-1.38-.53-.05-.8-.22-1.01-.72-1.94-4.61-3.92-9.2-5.88-13.81C103.84.76,102.95,0,101.59,0c-1.39,0-2.28.75-2.82,2.01-1.97,4.64-3.96,9.27-5.92,13.91-.17.39-.38.57-.81.6-4.94.43-9.87.88-14.8,1.31-1.12.1-2.11.42-2.72,1.45-.17.29-.3.6-.44.9v1.18c.26.71.63,1.33,1.22,1.84,3.78,3.29,7.54,6.61,11.32,9.89.36.31.45.58.34,1.04-1.14,4.93-2.26,9.86-3.38,14.79-.13.55-.14,1.09.01,1.64.49,1.73,2.55,2.78,4.51,1.59,4.32-2.63,8.68-5.2,13.02-7.81.33-.2.57-.21.91,0,4.33,2.61,8.68,5.2,13.02,7.8,1.15.69,2.3.75,3.42-.03,1.02-.7,1.39-1.88,1.08-3.24-1.13-4.98-2.25-9.97-3.39-14.95-.07-.32,0-.49.22-.68.68-.58,1.35-1.18,2.02-1.77,3.22-2.82,6.44-5.63,9.64-8.46.93-.82,1.26-1.88.89-3.06-.37-1.2-1.22-1.93-2.5-2.04Z"/>
      <path class="cls-1" d="M200.5,17.91c-5.06-.47-10.11-.94-15.17-1.38-.53-.05-.8-.22-1.01-.72-1.94-4.61-3.92-9.2-5.88-13.81C177.91.76,177.02,0,175.66,0c-1.39,0-2.28.75-2.82,2.01-1.97,4.64-3.96,9.27-5.92,13.91-.17.39-.38.57-.81.6-4.93.43-9.87.88-14.8,1.31-1.12.1-2.11.42-2.72,1.45-.17.29-.3.6-.44.9v1.18c.26.71.63,1.33,1.22,1.84,3.78,3.29,7.54,6.61,11.32,9.89.36.31.45.58.34,1.04-1.14,4.93-2.26,9.86-3.38,14.79-.13.55-.14,1.09.01,1.64.49,1.73,2.55,2.78,4.51,1.59,4.32-2.63,8.68-5.2,13.02-7.81.33-.2.57-.21.91,0,4.33,2.61,8.68,5.2,13.02,7.8,1.15.69,2.3.75,3.42-.03,1.02-.7,1.39-1.88,1.08-3.24-1.13-4.98-2.25-9.97-3.39-14.95-.07-.32,0-.49.22-.68.68-.58,1.35-1.18,2.02-1.77,3.22-2.82,6.44-5.63,9.64-8.46.93-.82,1.26-1.88.89-3.06-.37-1.2-1.22-1.93-2.5-2.04Z"/>
      <path class="cls-1" d="M274.57,17.91c-5.06-.47-10.11-.94-15.17-1.38-.53-.05-.8-.22-1.01-.72-1.94-4.61-3.92-9.2-5.88-13.81C251.98.76,251.1,0,249.73,0c-1.39,0-2.28.75-2.82,2.01-1.97,4.64-3.96,9.27-5.92,13.91-.17.39-.38.57-.81.6-4.93.43-9.87.88-14.8,1.31-1.12.1-2.11.42-2.72,1.45-.17.29-.3.6-.44.9v1.18c.26.71.63,1.33,1.22,1.84,3.78,3.29,7.54,6.61,11.32,9.89.36.31.45.58.34,1.04-1.14,4.93-2.26,9.86-3.38,14.79-.13.55-.14,1.09.01,1.64.49,1.73,2.55,2.78,4.51,1.59,4.32-2.63,8.68-5.2,13.02-7.81.33-.2.57-.21.91,0,4.33,2.61,8.68,5.2,13.02,7.8,1.15.69,2.3.75,3.42-.03,1.02-.7,1.39-1.88,1.08-3.24-1.13-4.98-2.25-9.97-3.39-14.95-.07-.32,0-.49.22-.68.68-.58,1.35-1.18,2.02-1.77,3.22-2.82,6.44-5.63,9.64-8.46.93-.82,1.26-1.88.89-3.06-.37-1.2-1.22-1.93-2.5-2.04Z"/>
      <path class="cls-1" d="M351.14,19.95c-.37-1.2-1.22-1.93-2.5-2.04-5.06-.47-10.11-.94-15.17-1.38-.53-.05-.8-.22-1.01-.72-1.94-4.61-3.92-9.2-5.88-13.81-.53-1.24-1.41-1.99-2.77-2h-.02v2c.3,0,.62,0,.95.78.73,1.72,1.47,3.44,2.2,5.16,1.23,2.88,2.46,5.76,3.68,8.64.5,1.18,1.4,1.83,2.68,1.94,4.48.39,9.3.83,15.16,1.38.39.04.62.15.77.65.11.36.1.62-.3.97-2.31,2.04-4.62,4.06-6.94,6.09l-2.7,2.37-.57.5c-.47.42-.95.83-1.43,1.24-.8.68-1.12,1.62-.88,2.66.88,3.82,1.74,7.65,2.61,11.48l.78,3.46c.19.84-.15,1.07-.27,1.15-.31.21-.49.21-.55.21-.24,0-.52-.14-.71-.25-1.75-1.05-3.5-2.1-5.25-3.15-2.59-1.55-5.18-3.1-7.77-4.66-.48-.29-.98-.43-1.48-.43,0,0,0,0,0,0V2h0V0c-1.38,0-2.27.75-2.8,2.01,0,0,0,0,0,0,0,0,0,0,0,0-.07.17-.15.34-.22.51-1.9,4.47-3.81,8.92-5.71,13.39-.04.1-.09.18-.13.25-.07.1-.16.17-.26.23-.11.06-.25.11-.42.12-2.15.19-4.31.38-6.46.57-.65.06-1.31.11-1.96.17-2.13.19-4.25.38-6.38.57-.9.08-1.7.31-2.3.92-.15.15-.3.33-.42.53-.07.11-.12.24-.18.36-.04.08-.08.15-.11.23-.05.1-.09.21-.14.31v1.18c.26.71.63,1.33,1.22,1.84l.16.14c3.72,3.24,7.43,6.51,11.15,9.75.36.31.45.58.34,1.04-1.14,4.93-2.26,9.86-3.38,14.79-.02.07-.02.14-.04.2-.09.48-.09.96.05,1.44,0,0,0,.01,0,.02.05.18.13.36.22.52.03.05.05.1.08.15.08.14.17.26.28.39.02.03.05.06.07.09.13.14.28.27.43.38.04.03.07.05.11.07.13.09.27.16.42.23.04.02.08.04.13.06.19.07.38.13.58.16.02,0,.04,0,.06,0,.13.02.25.03.38.03.07,0,.14-.01.21-.01.03,0,.06,0,.1,0,.21-.02.43-.07.65-.14.03,0,.06-.02.09-.03.23-.08.46-.18.69-.32,4.32-2.63,8.68-5.2,13.02-7.81.16-.09.29-.14.42-.15.01,0,.02,0,.04,0h0s0,0,0,0c.14,0,.28.05.45.15,4.33,2.61,8.68,5.2,13.02,7.8.58.35,1.16.54,1.74.54s1.13-.18,1.68-.56c1.02-.7,1.39-1.88,1.08-3.24-1.13-4.98-2.25-9.97-3.39-14.95-.07-.32,0-.49.22-.68.68-.58,1.35-1.18,2.02-1.77,3.22-2.82,6.44-5.63,9.64-8.46.93-.82,1.26-1.88.89-3.06Z"/>
    </g>
  </g>
</svg>