<?xml version="1.0" encoding="UTF-8"?>
<svg id="katman_2" data-name="katman 2" xmlns="http://www.w3.org/2000/svg" viewBox="0 0 55 55">
  <defs>
    <style>
      .cls-1 {
        stroke-width: 0px;
      }
    </style>
  </defs>
  <g id="katman_1" data-name="katman 1">
    <g>
      <path class="cls-1" d="M55,33.75v1.41c-.2,1.07-.53,2.1-1.26,2.94-.16.18-.06.32.02.49.89,1.84.61,3.64-.8,5.07-.22.22-.32.44-.32.76.02,1.07.03,2.14,0,3.2-.06,2.09-.86,3.86-2.36,5.3-1.63,1.56-3.6,2.09-5.8,2.09-11.31-.02-22.62,0-33.93-.01-.5,0-1-.02-1.5-.07-3.22-.28-6.11-3.05-6.56-6.29-.22-1.57-.07-3.14-.1-4.71,0-.28-.06-.51-.23-.75-.95-1.29-1.12-2.71-.54-4.2.1-.25.08-.4-.11-.61-2.61-2.93-1.73-7.29,1.81-8.99.27-.13.36-.29.35-.58-.02-.69-.02-1.38,0-2.06.01-.32-.09-.51-.37-.7-1.84-1.2-2.49-3.31-1.65-5.35.1-.24.1-.43-.02-.66-.35-.67-.43-1.39-.29-2.11.39-2,1.08-3.89,2.11-5.65,2.54-4.34,6.26-7.35,10.73-9.41C19.5.42,25.08-.41,30.89.18c4.83.49,9.34,1.93,13.43,4.59,4.13,2.7,7.26,6.24,8.83,11.03.41,1.25.9,2.54.39,3.91-.06.16,0,.28.08.41,1.33,2.09.61,5.07-1.94,6.23-.23.1-.32.23-.31.49.02.61.03,1.23,0,1.84-.02.37.09.58.46.73.73.29,1.31.79,1.84,1.37.76.84,1.1,1.88,1.35,2.96ZM27.45,19.87c3.18,0,6.37,0,9.55,0,4.35,0,8.69,0,13.04,0,1.07,0,1.7-.69,1.51-1.67-.34-1.73-.96-3.37-1.85-4.88-2.34-3.96-5.76-6.68-9.87-8.53-5.57-2.51-11.4-3.17-17.41-2.18-5.1.84-9.71,2.8-13.57,6.35-2.63,2.42-4.45,5.33-5.31,8.86-.28,1.17.24,2.09,1.63,2.08,7.42-.04,14.85-.02,22.27-.02ZM4.53,44.82c.03,1.26-.13,2.49.12,3.7.16.76.47,1.48.95,2.1,1.18,1.55,2.76,2.2,4.67,2.2,11.49,0,22.98,0,34.46,0,.13,0,.25,0,.38,0,2.55-.09,4.44-1.57,5.18-4.03.35-1.19.15-2.41.2-3.61.01-.26-.15-.23-.32-.21-.76.09-1.49-.06-2.21-.33-.58-.22-1.17-.26-1.79-.19-.94.1-1.65.64-2.39,1.15-1.28.89-2.69,1.19-4.23,1.01-1.22-.15-2.22-.75-3.19-1.45-.89-.64-1.87-.84-2.95-.69-.88.12-1.54.64-2.23,1.12-1.3.9-2.72,1.2-4.28,1.01-1.22-.15-2.22-.77-3.18-1.46-.95-.68-1.99-.85-3.11-.63-.78.15-1.39.64-2.02,1.08-1.3.9-2.72,1.21-4.28,1.02-1.22-.15-2.22-.76-3.19-1.45-1.05-.74-2.2-.95-3.41-.53-1.02.35-2.05.49-3.16.21ZM40.44,26.26c1,.06,1.84-.42,2.63-1.01,1.33-.99,2.81-1.37,4.45-1.17.65.08,1.23.38,1.86.49,1.5.26,2.86-.96,2.71-2.43-.03-.35-.08-.59-.54-.36-.52.26-1.1.26-1.68.26-14.91,0-29.81,0-44.72,0-.32,0-.65,0-.96-.04-.74-.11-.84-.02-.72.76.04.29.16.55.32.8.57.86,1.64,1.25,2.7.94.86-.25,1.72-.47,2.63-.46,1.43.02,2.62.64,3.73,1.47.8.6,1.69.82,2.68.75.74-.06,1.38-.34,1.97-.77.98-.71,2.01-1.29,3.26-1.42,1.76-.18,3.28.34,4.66,1.4.87.67,1.86.89,2.93.77.85-.1,1.54-.56,2.2-1.05,1.23-.9,2.59-1.24,4.1-1.13,1.29.09,2.36.67,3.37,1.41.72.52,1.5.84,2.42.79ZM33.59,42.23c1.9,0,2.8.32,4.35,1.38,1.7,1.17,3.25,1.21,4.91,0,1.89-1.39,3.88-1.73,6.07-.94.43.16.87.17,1.32.1,1.33-.22,2.2-1.62,1.76-2.83-.08-.21-.13-.35-.41-.23-.89.37-1.84.42-2.79.42-5.19,0-10.38,0-15.56,0-.82,0-1.71-.18-2.45.08-.74.26-1.2,1.1-1.8,1.67-.04.04-.08.08-.11.11-.64.61-1.19.61-1.82-.02-.49-.48-.98-.95-1.44-1.46-.27-.3-.56-.39-.94-.39-6.17.01-12.34,0-18.51,0-.75,0-1.5,0-2.23-.25-.3-.1-.44.02-.47.31-.11.83.11,1.54.77,2.08.68.55,1.45.68,2.27.43,1.02-.31,2.03-.54,3.11-.41,1.24.14,2.26.74,3.24,1.45.87.63,1.83.84,2.89.71.9-.11,1.58-.63,2.29-1.12,1.31-.91,2.75-1.22,4.33-1.01,1.2.16,2.18.77,3.13,1.45.86.61,1.8.82,2.85.69.9-.11,1.59-.62,2.29-1.11,1.03-.72,2.16-1.1,2.94-1.09ZM32.97,37.74c.04.06.07.11.11.17.07.01.13.03.2.03,5.4,0,10.81,0,16.21,0,1.08,0,2-.41,2.65-1.3.84-1.15.95-2.41.36-3.69-.63-1.33-1.77-1.88-3.19-1.88-3.04,0-6.08,0-9.13,0-.32,0-.53.12-.74.34-2.03,2.04-4.06,4.08-6.1,6.11-.1.1-.24.16-.37.23ZM22.95,37.87s-.03-.1-.06-.14c-1.19-1.2-2.38-2.4-3.56-3.62-.23-.24-.35-.11-.51.06-.83.85-1.67,1.69-2.5,2.53-.79.8-1.29.8-2.08,0-1.75-1.76-3.49-3.53-5.24-5.3-.18-.18-.33-.36-.63-.35-.95.02-1.9-.03-2.84.02-1.65.07-2.86,1.04-3.23,2.52-.38,1.54.21,3.08,1.49,3.86.64.39,1.34.48,2.06.48,5.53,0,11.06,0,16.58,0,.17,0,.36.05.53-.07ZM19.43,31.1c.07.1.1.16.14.21,2.72,2.75,5.44,5.5,8.15,8.26.29.29.4.1.58-.08,2.65-2.66,5.31-5.32,7.97-7.99.11-.11.27-.19.29-.41h-17.13ZM27.46,28.89c6.69,0,13.38,0,20.08,0,.55,0,1.31.25,1.58-.12.28-.38.09-1.11.1-1.68,0-.05,0-.11,0-.16,0-.1-.05-.18-.15-.2-.88-.14-1.68-.57-2.61-.52-1.05.06-1.85.61-2.66,1.17-1.35.95-2.84,1.21-4.44.97-1.1-.16-2.01-.72-2.89-1.35-.55-.39-1.13-.68-1.81-.76-1.12-.13-2.12.13-3.02.83-1.25.97-2.65,1.46-4.25,1.37-1.37-.08-2.51-.66-3.57-1.45-.83-.62-1.75-.83-2.78-.75-.93.07-1.64.56-2.36,1.08-1.14.81-2.39,1.18-3.78,1.13-1.37-.04-2.53-.58-3.59-1.39-.87-.67-1.84-.93-2.92-.81-.47.05-.9.22-1.34.37-.4.14-.98-.05-1.16.33-.18.37-.01.89-.06,1.34-.05.5.12.63.61.63,7.01-.02,14.03-.01,21.04-.01ZM11.86,31.06s-.05.08-.07.12c1.1,1.11,2.2,2.21,3.29,3.32.2.21.31.06.43-.07.46-.46.91-.92,1.37-1.38.69-.7.7-.71,0-1.39-.25-.24-.41-.61-.84-.61-1.39,0-2.79,0-4.18,0Z"/>
      <path class="cls-1" d="M31.93,4.78c.84.12,1.73.3,2.61.53,3.98,1.04,7.57,2.81,10.55,5.73,1.44,1.41,2.6,3.02,3.41,4.89.37.85-.07,1.63-.9,1.65-.44,0-.77-.19-.95-.58-2.69-5.67-7.55-8.29-13.27-9.73-.61-.15-1.23-.23-1.83-.39-.53-.14-.84-.66-.77-1.16.08-.53.53-.93,1.15-.94Z"/>
      <path class="cls-1" d="M31.17,15.42c0,.59-.49,1.07-1.07,1.06-.57,0-1.06-.52-1.05-1.09.02-.59.5-1.07,1.07-1.06.58.01,1.04.49,1.04,1.09Z"/>
      <path class="cls-1" d="M28.04,5.14c0,.58-.47,1.08-1.04,1.1-.57.01-1.07-.47-1.09-1.06-.02-.58.46-1.07,1.04-1.08.58,0,1.08.47,1.08,1.04Z"/>
      <path class="cls-1" d="M16.98,9.54c.57,0,1.05.5,1.05,1.08,0,.56-.5,1.07-1.05,1.08-.59,0-1.08-.51-1.06-1.11.02-.59.49-1.05,1.07-1.04Z"/>
      <path class="cls-1" d="M25.27,11.7c-.56,0-1.06-.51-1.06-1.07,0-.57.48-1.07,1.05-1.08.6-.01,1.09.48,1.08,1.09,0,.57-.5,1.07-1.06,1.06Z"/>
      <path class="cls-1" d="M10.75,14.66c0-.6.47-1.08,1.05-1.08.58,0,1.05.48,1.05,1.08,0,.59-.47,1.07-1.05,1.07-.59,0-1.05-.47-1.04-1.07Z"/>
      <path class="cls-1" d="M21.48,14.65c.01-.61.48-1.08,1.06-1.06.59.01,1.04.49,1.04,1.09,0,.59-.49,1.07-1.07,1.06-.59,0-1.04-.48-1.03-1.08Z"/>
    </g>
  </g>
</svg>