<?xml version="1.0" encoding="UTF-8"?>
<svg id="katman_2" data-name="katman 2" xmlns="http://www.w3.org/2000/svg" viewBox="0 0 55 55">
  <defs>
    <style>
      .cls-1 {
        stroke-width: 0px;
      }
    </style>
  </defs>
  <g id="katman_1" data-name="katman 1">
    <path class="cls-1" d="M0,15.36C0,14.9,0,14.43,0,13.97c.03-.04.07-.09.08-.13.39-1.83,1.48-3.02,3.26-3.56.3-.09.31-.25.34-.5.19-1.87,1.13-3.24,2.88-3.94,1.73-.69,3.34-.35,4.75.86.4.34.69.25.82-.27C13.63.48,20.32-1.93,25.2,1.73c.25.19.39.17.64,0,1.36-.91,2.82-1.07,4.34-.45.31.13.49.09.75-.13,2.46-2.18,6.31-1.14,7.34,1.98.13.4.22.51.67.31,4.94-2.15,10.49.88,11.37,6.21.14.83.21,1.64.68,2.37.25.39.33.88.34,1.34,0,.39.17.5.5.6,3.37,1.08,4.29,5.36,1.66,7.74-.27.24-.23.38-.07.65.95,1.63.93,3.27-.08,4.86-.2.32-.19.42.16.59.96.47,1.48,1.28,1.51,2.35.03,1.09-.46,1.94-1.43,2.46-.33.18-.4.37-.4.7.01,1.91.04,3.82-.29,5.73-1.3,7.51-7.07,13.65-14.47,15.41-1.05.25-2.11.34-3.17.53h-15.47c-.12-.03-.24-.08-.36-.09-3.87-.34-7.33-1.71-10.34-4.15-4.24-3.45-6.64-7.91-7.16-13.37-.13-1.38-.06-2.75-.09-4.13,0-.17.09-.39-.13-.48C.8,32.42.34,31.68,0,30.83v-1.07c.39-1.27,1.17-2.11,2.56-2.25.19-.02.24-.09.23-.27-.04-.72-.04-1.43.11-2.14.04-.18-.03-.3-.18-.41-1.98-1.46-2.32-4.31-1.03-6.14.08-.12.18-.23,0-.36C.76,17.48.3,16.47,0,15.36ZM27.56,32.99c-7.72,0-15.43,0-23.15,0-.14,0-.29,0-.43,0-.22-.01-.32.06-.32.3,0,2-.06,4.01.37,5.99,1.81,8.25,8.79,13.87,17.24,13.89,4.01,0,8.02,0,12.03,0,.72,0,1.43-.02,2.15-.08,7-.55,13.2-5.61,15.17-12.35.68-2.34.76-4.72.75-7.12,0-.53-.15-.64-.65-.64-7.72.02-15.43.01-23.15.01ZM22.62,8.39c2.9.66,4.94,2.33,6.12,5.01.21-.13.25-.34.34-.51.9-1.73,1.91-3.39,3.05-4.98.42-.6.93-.73,1.41-.39.47.33.5.86.08,1.46-.09.13-.19.26-.28.4-1.52,2.2-2.81,4.53-3.86,6.98-.06.15-.22.3-.09.5,1.32-.5,2.62-.49,3.89.17.28.15.34-.06.44-.22.56-.9,1.34-1.55,2.35-1.86.44-.14.6-.34.66-.79.23-1.83,1.23-3.09,2.95-3.75.38-.14.53-.37.6-.72.32-1.62-.87-3.16-2.53-3.25-1.02-.05-1.3-.4-1.13-1.39.21-1.25-.45-2.48-1.6-2.98-1.14-.5-2.47-.16-3.24.82-.73.94-.88.96-1.88.32-.93-.6-2.14-.6-3.03.04-.94.68-1.35,1.6-1.13,2.76.17.9-.12,1.28-1.02,1.33-.82.05-1.52.34-2.09,1.06ZM35.61,19.82c2.44-1.59,5.02-1.93,7.74-.9.29.11.33-.03.4-.24.31-.86.71-1.68,1.18-2.46.38-.62.88-.8,1.37-.5.48.29.56.8.21,1.41-.44.76-.82,1.55-1.12,2.37-.12.33-.09.52.2.76,1.94,1.64,2.94,3.74,2.97,6.29.01.97,0,.97.98.94,1.16-.03,2.16-.75,2.54-1.83.37-1.06.07-2.22-.78-2.98-.89-.79-.81-1.36.27-1.88,1.13-.54,1.78-1.78,1.55-2.97-.26-1.31-1.31-2.21-2.63-2.27-.94-.04-1.23-.41-1.07-1.35.22-1.25-.39-2.43-1.52-2.96-1.15-.53-2.5-.21-3.3.77-.75.93-.89.95-1.88.33-.99-.62-2.01-.63-2.98,0-.95.62-1.36,1.54-1.2,2.68.16,1.1-.07,1.38-1.17,1.47-1.08.08-1.84.64-2.31,1.6-.08.17-.16.34-.04.55.2.36.37.73.57,1.14ZM32.73,27.5c1.24,0,2.47-.02,3.71,0,.36,0,.56-.13.73-.41,1.12-1.79-.1-4.02-2.31-4.19-.87-.07-1.15-.41-1.02-1.25.2-1.27-.23-2.33-1.23-2.91-1.06-.62-2.11-.54-3.12.17-.65.46-1.06.39-1.54-.26-.85-1.15-2.14-1.54-3.36-1.03-1.21.52-1.82,1.71-1.59,3.12.13.82-.2,1.23-1.03,1.25-.54,0-1.02.16-1.47.44-.2.13-.31.25-.19.52.6,1.31.83,2.69.74,4.13-.02.36.11.41.42.41,1.61-.01,3.22-.02,4.83,0,.35,0,.45-.12.5-.44.22-1.41.46-2.82.7-4.23.1-.6.5-.91,1.04-.83.52.07.83.51.77,1.1,0,.09-.03.18-.05.26-.21,1.25-.4,2.51-.63,3.76-.06.33.02.39.33.39,1.25-.01,2.51,0,3.76,0ZM3.52,22.91c.78-1.69,1.91-3.03,3.43-4.02,1.53-1,3.23-1.44,5.15-1.5-.86-.84-1.72-1.46-2.65-1.99-.53-.3-1.09-.55-1.62-.84-.46-.25-.62-.74-.42-1.19.19-.42.65-.62,1.12-.48.14.04.26.11.39.17,1.41.64,2.69,1.48,3.91,2.5.04-.14.06-.21.08-.3.36-2.14,1.37-3.9,3.08-5.23.26-.2.15-.34.03-.53-.8-1.28-2.53-1.62-3.82-.76-.88.59-1.16.54-1.77-.28-.31-.41-.69-.73-1.16-.92-1-.39-1.95-.26-2.77.42-.8.66-1.14,1.53-.95,2.58.18.97-.12,1.34-1.1,1.37-.53.02-1.02.18-1.45.48-.85.61-1.27,1.46-1.17,2.5.1,1.06.67,1.84,1.65,2.27.38.17.7.37.77.81.07.45-.2.72-.51.99-1.23,1.06-1.35,2.8-.24,3.93ZM27.5,31.16c8.06,0,16.11,0,24.17,0,.18,0,.36,0,.54,0,.56-.02.95-.38.96-.88.02-.51-.38-.91-.96-.95-.12,0-.25,0-.38,0-16.22,0-32.44,0-48.66,0-.9,0-1.36.32-1.34.94.02.6.45.89,1.33.89,8.11,0,16.22,0,24.33,0ZM27.42,15.91c.05-.38-.05-.7-.13-1.03-.81-3.26-4.12-5.33-7.46-4.67-3.31.65-5.6,3.89-5.09,7.19.05.35.19.55.54.68,1.29.49,2.4,1.26,3.34,2.27.61.66.62.66,1.4.27.19-.09.39-.2.6-.23.37-.06.46-.26.5-.62.26-2.26,1.75-3.81,3.97-4.16.79-.13,1.56.05,2.33.29ZM20.02,1.83c-.21.02-.59.04-.96.11-2.38.47-4.02,1.83-4.91,4.09-.07.18-.23.38.17.44,1.47.21,2.6.95,3.37,2.23.1.17.19.21.38.14.7-.28,1.43-.44,2.18-.52.19-.02.31-.1.41-.28.62-1.21,1.58-2.01,2.9-2.37.2-.05.29-.15.29-.37,0-.54.12-1.07.36-1.56.14-.3.05-.44-.18-.62-1.14-.85-2.43-1.27-4.01-1.3ZM17.41,26.69q-.01.82.81.82c.2,0,.4-.02.59,0,.3.03.42-.08.42-.39,0-.59,0-1.18-.09-1.76-.58-3.6-3.98-6.34-7.57-6.09-3.88.26-6.86,3.27-6.97,7.04q-.04,1.2,1.16,1.2.69,0,.67-.71c-.1-3.15,2.32-5.71,5.4-5.73,3.14-.03,5.61,2.47,5.57,5.63ZM11.92,27.5c1.02,0,2.04-.02,3.06.01.39.01.55-.11.58-.48.13-1.53-.39-2.76-1.69-3.58-1.3-.82-2.66-.81-3.95.03-1.29.84-1.79,2.09-1.64,3.6.03.33.19.43.52.42,1.04-.02,2.08,0,3.11,0ZM48.33,9.44c-.79-3.87-5.3-5.9-8.55-4.3.13.09.25.16.36.24,1.3.9,1.96,2.13,2.02,3.71.01.35-.22.79,0,1.03.2.23.64.25.97.39.18.08.31.09.47-.07,1.35-1.26,2.92-1.55,4.72-1.01ZM36.59,21.42c.43.24.86.41,1.16.74.3.32.56.33.97.17,2.87-1.14,6.07.93,6.2,3.97.02.4-.25.95.04,1.14.3.2.83.03,1.26.07.41.04.51-.14.53-.51.22-3.99-3.08-7.18-7.07-6.78-1.12.11-2.15.49-3.08,1.21ZM39.05,27.5c1.26,0,2.43,0,3.61,0,.23,0,.3-.12.34-.32.24-1.03-.04-1.92-.8-2.62-.78-.72-1.72-.89-2.74-.57-.19.06-.32.15-.24.39.33,1.03.24,2.04-.17,3.12Z"/>
  </g>
</svg>