<?xml version="1.0" encoding="UTF-8"?>
<svg id="katman_2" data-name="katman 2" xmlns="http://www.w3.org/2000/svg" viewBox="0 0 55 55">
  <defs>
    <style>
      .cls-1 {
        stroke-width: 0px;
      }
    </style>
  </defs>
  <g id="katman_1" data-name="katman 1">
    <g>
      <path class="cls-1" d="M38.88,0c1.07.39,1.51,1.16,1.45,2.28-.04.91,0,1.82-.02,2.74-.01.38.12.48.49.47,2.45-.01,4.91,0,7.36,0,2.06,0,3.17,1.09,3.16,3.14,0,.38.07.55.5.61,1.18.16,2.12,1.17,2.2,2.36.06.94.05,1.89.04,2.84,0,.81-.34,1.12-1.15,1.13-.75,0-.76,0-.85.74-.57,4.88-1.14,9.77-1.71,14.65-.63,5.38-1.26,10.76-1.89,16.14-.22,1.86-.43,3.73-.66,5.59-.04.36.05.48.41.45.41-.03.82-.02,1.23,0,.57.03.93.39.93.9,0,.51-.36.87-.93.91-.14.01-.29,0-.43,0-15.88,0-31.76,0-47.64,0-.14,0-.29,0-.43,0-.58-.04-.98-.43-.96-.94.02-.5.4-.87.97-.88.93-.02,1.86-.03,2.79,0,.46.02.55-.09.48-.57-.83-5.28-1.62-10.56-2.43-15.84-.59-3.83-1.17-7.67-1.77-11.5-.21-1.34.54-2.29,1.9-2.34.45-.02.9-.02,1.34,0,.28.01.38-.08.37-.37-.02-.72,0-1.43,0-2.15,0-1.33.73-2.04,2.07-2.05,1,0,2.01-.01,3.01,0,.33,0,.44-.1.43-.43-.02-.75-.01-1.5,0-2.25.01-1.4.73-2.12,2.12-2.12.98,0,1.97-.01,2.95,0,.31,0,.48-.05.44-.4-.11-1.23.7-2.21,2.25-2.15.98.04,1.97,0,2.95,0,1.41.01,2.16.73,2.11,2.11-.02.58.18.67.69.65,1.16-.04,1.17-.01,1.16-1.19,0-.78,0-1.54.49-2.21.45-.62,1.04-1.05,1.81-1.13.38-.04.47-.21.46-.55-.02-.59.03-1.18.33-1.71.59-1.05,1.51-1.47,2.67-1.47,2.78,0,5.55-.01,8.33.01.47,0,.61-.12.59-.59-.04-.87-.03-1.75,0-2.63,0-.35-.09-.46-.45-.46-1.27.02-2.54,0-3.81.01-.52,0-.97-.07-1.17-.63-.2-.57.15-.9.56-1.2h5.26ZM38.9,15.57h-10.04c-1.39,0-1.37,0-1.37,1.4,0,.37.13.44.46.43,1-.02,2-.01,3.01,0,1.3,0,2.02.74,2.03,2.03,0,1.02.01,2.04,0,3.06,0,.3.08.42.39.41.41-.02.82-.01,1.23,0,1.43.03,2.21.93,2,2.35-.14.95-.29,1.91-.44,2.86-1.26,8.21-2.51,16.42-3.78,24.63-.06.39.08.4.38.4,4.24,0,8.48,0,12.73,0,.38,0,.47-.13.5-.49.13-1.3.29-2.59.44-3.89.59-5.08,1.19-10.15,1.79-15.23.68-5.8,1.35-11.61,2.04-17.41.05-.45-.05-.57-.51-.57-3.62.02-7.23.01-10.85.01ZM18.32,53.13c3.55,0,7.09,0,10.64,0,.5,0,1.14.21,1.46-.09.34-.31.23-.97.31-1.48.74-4.79,1.47-9.57,2.2-14.36.62-4.03,1.24-8.05,1.86-12.08.05-.3-.02-.42-.35-.41-.88.02-1.76.05-2.63,0-.55-.03-.75.14-.89.68-1,3.78-3.17,6.66-6.81,8.26-2.86,1.26-5.85,1.43-8.89.83-2.98-.58-5.44-2.04-7.28-4.47-1.09-1.43-1.82-3.03-2.23-4.77-.09-.38-.25-.51-.65-.5-.93.02-1.86,0-2.79-.02-.33,0-.43.06-.37.42.21,1.2.38,2.4.56,3.6,1.22,7.95,2.44,15.9,3.64,23.85.07.44.21.54.63.54,3.87-.02,7.74,0,11.6,0ZM38.94,13.74c3.99,0,7.98,0,11.98,0q1.33,0,1.33-1.33c0-1.18-.24-1.42-1.41-1.42-7.91,0-15.82,0-23.74,0-.16,0-.32,0-.48,0-.62.07-.92.39-.94,1.02-.01.39.03.79-.01,1.18-.05.45.11.56.56.56,4.24-.02,8.48-.01,12.73-.01ZM20.17,22.85c0-3.17,0-6.33,0-9.5,0-.42-.11-.56-.54-.54-.84.03-1.68.04-2.52,0-.49-.02-.63.13-.63.62.02,3.79.01,7.58.01,11.37,0,2.52,0,5.04,0,7.56,0,.36.09.5.46.53.91.07,1.82.07,2.73,0,.39-.03.49-.17.49-.56-.02-3.17,0-6.33,0-9.5ZM14.66,23.93c0-2.68,0-5.37,0-8.05,0-.41-.09-.56-.53-.54-.89.04-1.79.03-2.68,0-.39-.01-.48.13-.47.49.01,4.78,0,9.55,0,14.33,0,.28.1.46.32.62.84.62,1.74,1.12,2.73,1.46q.63.22.63-.43c0-2.63,0-5.26,0-7.89ZM22,23.98c0,2.65.01,5.29,0,7.94,0,.48.12.52.54.37,1.03-.39,1.99-.88,2.87-1.55.19-.14.27-.29.27-.53,0-4.74,0-9.48,0-14.22,0-.38-.14-.44-.47-.43-.89.02-1.79.03-2.69,0-.44-.02-.53.13-.53.54.02,2.63,0,5.26,0,7.89ZM38.97,9.15c1.22,0,2.43,0,3.65,0,2.13,0,4.26,0,6.39,0,.18,0,.44.12.5-.22.19-.99-.26-1.6-1.25-1.6-6.21,0-12.42,0-18.63,0-.21,0-.43.02-.63.09-.49.17-.71.72-.58,1.46.09.53.52.26.78.26,3.26.02,6.51.01,9.77.01ZM27.5,28.5c.15-.21.21-.29.27-.38.72-1.12,1.2-2.35,1.51-3.64.2-.85.71-1.39,1.57-1.55.24-.04.32-.14.32-.38-.01-.98-.01-1.97,0-2.95,0-.26-.06-.38-.36-.38-.98.01-1.97.01-2.95,0-.29,0-.36.1-.36.37,0,2.91,0,5.82,0,8.9ZM9.06,28.38c.05-.08.09-.11.09-.13,0-2.59,0-5.18.01-7.77,0-.27-.11-.33-.35-.33-.98,0-1.97.01-2.95,0-.27,0-.38.08-.37.37.02.68.01,1.36,0,2.04,0,.21.04.33.27.37.97.16,1.45.79,1.67,1.71.31,1.33.83,2.57,1.64,3.75Z"/>
      <path class="cls-1" d="M55,54.31c-.45.62-1.56.88-2.24.53-.32-.16-.48-.43-.49-.78,0-.37.15-.65.49-.83.68-.35,1.8-.08,2.24.54v.54Z"/>
      <path class="cls-1" d="M24.73,43.96c0,3.55-2.86,6.41-6.41,6.41-3.53,0-6.39-2.84-6.41-6.36-.02-3.55,2.84-6.43,6.39-6.44,3.55-.01,6.42,2.85,6.43,6.4ZM22.9,43.97c0-2.51-2.05-4.57-4.56-4.58-2.5,0-4.58,2.06-4.59,4.56,0,2.5,2.06,4.57,4.57,4.58,2.51,0,4.57-2.04,4.58-4.56Z"/>
      <path class="cls-1" d="M9.54,50.27c0,.56-.35.97-.82,1.02-.47.05-.91-.3-.99-.85-.22-1.45-.43-2.9-.64-4.35-.17-1.18-.34-2.37-.51-3.55-.05-.33-.07-.65.14-.93.22-.29.52-.44.89-.37.43.08.69.38.75.81.15.93.28,1.87.42,2.81.25,1.73.49,3.46.74,5.2.01.09.02.18.02.22Z"/>
      <path class="cls-1" d="M7.05,32.82c0,.59-.33,1-.81,1.05-.45.05-.88-.24-.98-.73-.13-.65-.22-1.3-.29-1.96-.05-.48.29-.88.76-.96.46-.08.92.18,1.02.66.14.66.22,1.34.31,1.93Z"/>
      <path class="cls-1" d="M7.84,38.27c0,.66-.34,1.06-.82,1.11-.44.05-.88-.26-.97-.74-.12-.65-.21-1.31-.26-1.96-.04-.52.28-.88.75-.94.49-.07.9.17,1,.67.14.66.22,1.34.3,1.87Z"/>
    </g>
  </g>
</svg>