<?xml version="1.0" encoding="UTF-8"?>
<svg id="katman_2" data-name="katman 2" xmlns="http://www.w3.org/2000/svg" viewBox="0 0 55 32.29">
  <g id="katman_1" data-name="katman 1">
    <path class="cls-1" d="M0,26.88c.31-1.01,1.04-1.72,1.76-2.44,7.78-7.76,15.55-15.53,23.31-23.31.95-.96,2.03-1.36,3.35-.98.53.15.95.48,1.34.86,8.06,8.06,16.13,16.12,24.19,24.19,1.4,1.4,1.4,3.15.02,4.56-.61.63-1.22,1.26-1.89,1.83-1.12.96-2.72.92-3.84-.02-.19-.16-.37-.34-.55-.52-6.6-6.59-13.19-13.18-19.78-19.79-.33-.33-.5-.38-.86-.02-6.63,6.66-13.28,13.3-19.92,19.94-1.24,1.24-2.93,1.48-4.1.46-1.18-1.03-2.48-2.01-3.03-3.59v-1.18Z"/>
  </g>
</svg>